<?xml version="1.0" encoding="utf-8" standalone="no"?>
<!DOCTYPE svg PUBLIC "-//W3C//DTD SVG 1.1//EN"
  "http://www.w3.org/Graphics/SVG/1.1/DTD/svg11.dtd">
<svg xmlns:xlink="http://www.w3.org/1999/xlink" width="720pt" height="576pt" viewBox="0 0 720 576" xmlns="http://www.w3.org/2000/svg" version="1.1">
 <metadata>
  <rdf:RDF xmlns:dc="http://purl.org/dc/elements/1.1/" xmlns:cc="http://creativecommons.org/ns#" xmlns:rdf="http://www.w3.org/1999/02/22-rdf-syntax-ns#">
   <cc:Work>
    <dc:type rdf:resource="http://purl.org/dc/dcmitype/StillImage"/>
    <dc:date>2022-10-07T13:05:30.986682</dc:date>
    <dc:format>image/svg+xml</dc:format>
    <dc:creator>
     <cc:Agent>
      <dc:title>Matplotlib v3.5.2, https://matplotlib.org/</dc:title>
     </cc:Agent>
    </dc:creator>
   </cc:Work>
  </rdf:RDF>
 </metadata>
 <defs>
  <style type="text/css">*{stroke-linejoin: round; stroke-linecap: butt}</style>
 </defs>
 <g id="figure_1">
  <g id="patch_1">
   <path d="M 0 576 
L 720 576 
L 720 0 
L 0 0 
z
" style="fill: #ffffff"/>
  </g>
  <g id="axes_1">
   <g id="patch_2">
    <path d="M 90 512.64 
L 648 512.64 
L 648 69.12 
L 90 69.12 
z
" style="fill: #ffffff"/>
   </g>
   <g id="matplotlib.axis_1">
    <g id="xtick_1">
     <g id="line2d_1">
      <defs>
       <path id="m8c83cbff36" d="M 0 0 
L 0 3.5 
" style="stroke: #000000; stroke-width: 0.8"/>
      </defs>
      <g>
       <use xlink:href="#m8c83cbff36" x="90" y="512.64" style="stroke: #000000; stroke-width: 0.8"/>
      </g>
     </g>
    </g>
    <g id="xtick_2">
     <g id="line2d_2">
      <g>
       <use xlink:href="#m8c83cbff36" x="541.714286" y="512.64" style="stroke: #000000; stroke-width: 0.8"/>
      </g>
     </g>
     <g id="text_1">
      <!--  -->
      <g transform="translate(541.714286 527.238438)scale(0.1 -0.1)"/>
      <!--  -->
      <g transform="translate(541.714286 538.43625)scale(0.1 -0.1)"/>
      <!-- Oct -->
      <g transform="translate(533.068973 549.634063)scale(0.1 -0.1)">
       <defs>
        <path id="DejaVuSans-4f" d="M 2522 4238 
Q 1834 4238 1429 3725 
Q 1025 3213 1025 2328 
Q 1025 1447 1429 934 
Q 1834 422 2522 422 
Q 3209 422 3611 934 
Q 4013 1447 4013 2328 
Q 4013 3213 3611 3725 
Q 3209 4238 2522 4238 
z
M 2522 4750 
Q 3503 4750 4090 4092 
Q 4678 3434 4678 2328 
Q 4678 1225 4090 567 
Q 3503 -91 2522 -91 
Q 1538 -91 948 565 
Q 359 1222 359 2328 
Q 359 3434 948 4092 
Q 1538 4750 2522 4750 
z
" transform="scale(0.015625)"/>
        <path id="DejaVuSans-63" d="M 3122 3366 
L 3122 2828 
Q 2878 2963 2633 3030 
Q 2388 3097 2138 3097 
Q 1578 3097 1268 2742 
Q 959 2388 959 1747 
Q 959 1106 1268 751 
Q 1578 397 2138 397 
Q 2388 397 2633 464 
Q 2878 531 3122 666 
L 3122 134 
Q 2881 22 2623 -34 
Q 2366 -91 2075 -91 
Q 1284 -91 818 406 
Q 353 903 353 1747 
Q 353 2603 823 3093 
Q 1294 3584 2113 3584 
Q 2378 3584 2631 3529 
Q 2884 3475 3122 3366 
z
" transform="scale(0.015625)"/>
        <path id="DejaVuSans-74" d="M 1172 4494 
L 1172 3500 
L 2356 3500 
L 2356 3053 
L 1172 3053 
L 1172 1153 
Q 1172 725 1289 603 
Q 1406 481 1766 481 
L 2356 481 
L 2356 0 
L 1766 0 
Q 1100 0 847 248 
Q 594 497 594 1153 
L 594 3053 
L 172 3053 
L 172 3500 
L 594 3500 
L 594 4494 
L 1172 4494 
z
" transform="scale(0.015625)"/>
       </defs>
       <use xlink:href="#DejaVuSans-4f"/>
       <use xlink:href="#DejaVuSans-63" x="78.710938"/>
       <use xlink:href="#DejaVuSans-74" x="133.691406"/>
      </g>
      <!-- 2022 -->
      <g transform="translate(528.989286 560.831875)scale(0.1 -0.1)">
       <defs>
        <path id="DejaVuSans-32" d="M 1228 531 
L 3431 531 
L 3431 0 
L 469 0 
L 469 531 
Q 828 903 1448 1529 
Q 2069 2156 2228 2338 
Q 2531 2678 2651 2914 
Q 2772 3150 2772 3378 
Q 2772 3750 2511 3984 
Q 2250 4219 1831 4219 
Q 1534 4219 1204 4116 
Q 875 4013 500 3803 
L 500 4441 
Q 881 4594 1212 4672 
Q 1544 4750 1819 4750 
Q 2544 4750 2975 4387 
Q 3406 4025 3406 3419 
Q 3406 3131 3298 2873 
Q 3191 2616 2906 2266 
Q 2828 2175 2409 1742 
Q 1991 1309 1228 531 
z
" transform="scale(0.015625)"/>
        <path id="DejaVuSans-30" d="M 2034 4250 
Q 1547 4250 1301 3770 
Q 1056 3291 1056 2328 
Q 1056 1369 1301 889 
Q 1547 409 2034 409 
Q 2525 409 2770 889 
Q 3016 1369 3016 2328 
Q 3016 3291 2770 3770 
Q 2525 4250 2034 4250 
z
M 2034 4750 
Q 2819 4750 3233 4129 
Q 3647 3509 3647 2328 
Q 3647 1150 3233 529 
Q 2819 -91 2034 -91 
Q 1250 -91 836 529 
Q 422 1150 422 2328 
Q 422 3509 836 4129 
Q 1250 4750 2034 4750 
z
" transform="scale(0.015625)"/>
       </defs>
       <use xlink:href="#DejaVuSans-32"/>
       <use xlink:href="#DejaVuSans-30" x="63.623047"/>
       <use xlink:href="#DejaVuSans-32" x="127.246094"/>
       <use xlink:href="#DejaVuSans-32" x="190.869141"/>
      </g>
     </g>
    </g>
    <g id="xtick_3">
     <g id="line2d_3">
      <g>
       <use xlink:href="#m8c83cbff36" x="648" y="512.64" style="stroke: #000000; stroke-width: 0.8"/>
      </g>
     </g>
    </g>
    <g id="xtick_4">
     <g id="line2d_4">
      <defs>
       <path id="m1d7da17f46" d="M 0 0 
L 0 2 
" style="stroke: #000000; stroke-width: 0.6"/>
      </defs>
      <g>
       <use xlink:href="#m1d7da17f46" x="116.571429" y="512.64" style="stroke: #000000; stroke-width: 0.6"/>
      </g>
     </g>
    </g>
    <g id="xtick_5">
     <g id="line2d_5">
      <g>
       <use xlink:href="#m1d7da17f46" x="143.142857" y="512.64" style="stroke: #000000; stroke-width: 0.6"/>
      </g>
     </g>
     <g id="text_2">
      <!-- 12 -->
      <g transform="translate(136.780357 525.638438)scale(0.1 -0.1)">
       <defs>
        <path id="DejaVuSans-31" d="M 794 531 
L 1825 531 
L 1825 4091 
L 703 3866 
L 703 4441 
L 1819 4666 
L 2450 4666 
L 2450 531 
L 3481 531 
L 3481 0 
L 794 0 
L 794 531 
z
" transform="scale(0.015625)"/>
       </defs>
       <use xlink:href="#DejaVuSans-31"/>
       <use xlink:href="#DejaVuSans-32" x="63.623047"/>
      </g>
     </g>
    </g>
    <g id="xtick_6">
     <g id="line2d_6">
      <g>
       <use xlink:href="#m1d7da17f46" x="169.714286" y="512.64" style="stroke: #000000; stroke-width: 0.6"/>
      </g>
     </g>
    </g>
    <g id="xtick_7">
     <g id="line2d_7">
      <g>
       <use xlink:href="#m1d7da17f46" x="196.285714" y="512.64" style="stroke: #000000; stroke-width: 0.6"/>
      </g>
     </g>
    </g>
    <g id="xtick_8">
     <g id="line2d_8">
      <g>
       <use xlink:href="#m1d7da17f46" x="222.857143" y="512.64" style="stroke: #000000; stroke-width: 0.6"/>
      </g>
     </g>
    </g>
    <g id="xtick_9">
     <g id="line2d_9">
      <g>
       <use xlink:href="#m1d7da17f46" x="249.428571" y="512.64" style="stroke: #000000; stroke-width: 0.6"/>
      </g>
     </g>
    </g>
    <g id="xtick_10">
     <g id="line2d_10">
      <g>
       <use xlink:href="#m1d7da17f46" x="276" y="512.64" style="stroke: #000000; stroke-width: 0.6"/>
      </g>
     </g>
     <g id="text_3">
      <!-- 19 -->
      <g transform="translate(269.6375 525.638438)scale(0.1 -0.1)">
       <defs>
        <path id="DejaVuSans-39" d="M 703 97 
L 703 672 
Q 941 559 1184 500 
Q 1428 441 1663 441 
Q 2288 441 2617 861 
Q 2947 1281 2994 2138 
Q 2813 1869 2534 1725 
Q 2256 1581 1919 1581 
Q 1219 1581 811 2004 
Q 403 2428 403 3163 
Q 403 3881 828 4315 
Q 1253 4750 1959 4750 
Q 2769 4750 3195 4129 
Q 3622 3509 3622 2328 
Q 3622 1225 3098 567 
Q 2575 -91 1691 -91 
Q 1453 -91 1209 -44 
Q 966 3 703 97 
z
M 1959 2075 
Q 2384 2075 2632 2365 
Q 2881 2656 2881 3163 
Q 2881 3666 2632 3958 
Q 2384 4250 1959 4250 
Q 1534 4250 1286 3958 
Q 1038 3666 1038 3163 
Q 1038 2656 1286 2365 
Q 1534 2075 1959 2075 
z
" transform="scale(0.015625)"/>
       </defs>
       <use xlink:href="#DejaVuSans-31"/>
       <use xlink:href="#DejaVuSans-39" x="63.623047"/>
      </g>
     </g>
    </g>
    <g id="xtick_11">
     <g id="line2d_11">
      <g>
       <use xlink:href="#m1d7da17f46" x="302.571429" y="512.64" style="stroke: #000000; stroke-width: 0.6"/>
      </g>
     </g>
    </g>
    <g id="xtick_12">
     <g id="line2d_12">
      <g>
       <use xlink:href="#m1d7da17f46" x="329.142857" y="512.64" style="stroke: #000000; stroke-width: 0.6"/>
      </g>
     </g>
    </g>
    <g id="xtick_13">
     <g id="line2d_13">
      <g>
       <use xlink:href="#m1d7da17f46" x="355.714286" y="512.64" style="stroke: #000000; stroke-width: 0.6"/>
      </g>
     </g>
    </g>
    <g id="xtick_14">
     <g id="line2d_14">
      <g>
       <use xlink:href="#m1d7da17f46" x="382.285714" y="512.64" style="stroke: #000000; stroke-width: 0.6"/>
      </g>
     </g>
    </g>
    <g id="xtick_15">
     <g id="line2d_15">
      <g>
       <use xlink:href="#m1d7da17f46" x="408.857143" y="512.64" style="stroke: #000000; stroke-width: 0.6"/>
      </g>
     </g>
     <g id="text_4">
      <!-- 26 -->
      <g transform="translate(402.494643 525.638438)scale(0.1 -0.1)">
       <defs>
        <path id="DejaVuSans-36" d="M 2113 2584 
Q 1688 2584 1439 2293 
Q 1191 2003 1191 1497 
Q 1191 994 1439 701 
Q 1688 409 2113 409 
Q 2538 409 2786 701 
Q 3034 994 3034 1497 
Q 3034 2003 2786 2293 
Q 2538 2584 2113 2584 
z
M 3366 4563 
L 3366 3988 
Q 3128 4100 2886 4159 
Q 2644 4219 2406 4219 
Q 1781 4219 1451 3797 
Q 1122 3375 1075 2522 
Q 1259 2794 1537 2939 
Q 1816 3084 2150 3084 
Q 2853 3084 3261 2657 
Q 3669 2231 3669 1497 
Q 3669 778 3244 343 
Q 2819 -91 2113 -91 
Q 1303 -91 875 529 
Q 447 1150 447 2328 
Q 447 3434 972 4092 
Q 1497 4750 2381 4750 
Q 2619 4750 2861 4703 
Q 3103 4656 3366 4563 
z
" transform="scale(0.015625)"/>
       </defs>
       <use xlink:href="#DejaVuSans-32"/>
       <use xlink:href="#DejaVuSans-36" x="63.623047"/>
      </g>
     </g>
    </g>
    <g id="xtick_16">
     <g id="line2d_16">
      <g>
       <use xlink:href="#m1d7da17f46" x="435.428571" y="512.64" style="stroke: #000000; stroke-width: 0.6"/>
      </g>
     </g>
    </g>
    <g id="xtick_17">
     <g id="line2d_17">
      <g>
       <use xlink:href="#m1d7da17f46" x="462" y="512.64" style="stroke: #000000; stroke-width: 0.6"/>
      </g>
     </g>
    </g>
    <g id="xtick_18">
     <g id="line2d_18">
      <g>
       <use xlink:href="#m1d7da17f46" x="488.571429" y="512.64" style="stroke: #000000; stroke-width: 0.6"/>
      </g>
     </g>
    </g>
    <g id="xtick_19">
     <g id="line2d_19">
      <g>
       <use xlink:href="#m1d7da17f46" x="515.142857" y="512.64" style="stroke: #000000; stroke-width: 0.6"/>
      </g>
     </g>
    </g>
    <g id="xtick_20">
     <g id="line2d_20">
      <g>
       <use xlink:href="#m1d7da17f46" x="568.285714" y="512.64" style="stroke: #000000; stroke-width: 0.6"/>
      </g>
     </g>
    </g>
    <g id="xtick_21">
     <g id="line2d_21">
      <g>
       <use xlink:href="#m1d7da17f46" x="594.857143" y="512.64" style="stroke: #000000; stroke-width: 0.6"/>
      </g>
     </g>
    </g>
    <g id="xtick_22">
     <g id="line2d_22">
      <g>
       <use xlink:href="#m1d7da17f46" x="621.428571" y="512.64" style="stroke: #000000; stroke-width: 0.6"/>
      </g>
     </g>
    </g>
    <g id="text_5">
     <!-- Date -->
     <g transform="translate(357.049219 574.51)scale(0.1 -0.1)">
      <defs>
       <path id="DejaVuSans-44" d="M 1259 4147 
L 1259 519 
L 2022 519 
Q 2988 519 3436 956 
Q 3884 1394 3884 2338 
Q 3884 3275 3436 3711 
Q 2988 4147 2022 4147 
L 1259 4147 
z
M 628 4666 
L 1925 4666 
Q 3281 4666 3915 4102 
Q 4550 3538 4550 2338 
Q 4550 1131 3912 565 
Q 3275 0 1925 0 
L 628 0 
L 628 4666 
z
" transform="scale(0.015625)"/>
       <path id="DejaVuSans-61" d="M 2194 1759 
Q 1497 1759 1228 1600 
Q 959 1441 959 1056 
Q 959 750 1161 570 
Q 1363 391 1709 391 
Q 2188 391 2477 730 
Q 2766 1069 2766 1631 
L 2766 1759 
L 2194 1759 
z
M 3341 1997 
L 3341 0 
L 2766 0 
L 2766 531 
Q 2569 213 2275 61 
Q 1981 -91 1556 -91 
Q 1019 -91 701 211 
Q 384 513 384 1019 
Q 384 1609 779 1909 
Q 1175 2209 1959 2209 
L 2766 2209 
L 2766 2266 
Q 2766 2663 2505 2880 
Q 2244 3097 1772 3097 
Q 1472 3097 1187 3025 
Q 903 2953 641 2809 
L 641 3341 
Q 956 3463 1253 3523 
Q 1550 3584 1831 3584 
Q 2591 3584 2966 3190 
Q 3341 2797 3341 1997 
z
" transform="scale(0.015625)"/>
       <path id="DejaVuSans-65" d="M 3597 1894 
L 3597 1613 
L 953 1613 
Q 991 1019 1311 708 
Q 1631 397 2203 397 
Q 2534 397 2845 478 
Q 3156 559 3463 722 
L 3463 178 
Q 3153 47 2828 -22 
Q 2503 -91 2169 -91 
Q 1331 -91 842 396 
Q 353 884 353 1716 
Q 353 2575 817 3079 
Q 1281 3584 2069 3584 
Q 2775 3584 3186 3129 
Q 3597 2675 3597 1894 
z
M 3022 2063 
Q 3016 2534 2758 2815 
Q 2500 3097 2075 3097 
Q 1594 3097 1305 2825 
Q 1016 2553 972 2059 
L 3022 2063 
z
" transform="scale(0.015625)"/>
      </defs>
      <use xlink:href="#DejaVuSans-44"/>
      <use xlink:href="#DejaVuSans-61" x="77.001953"/>
      <use xlink:href="#DejaVuSans-74" x="138.28125"/>
      <use xlink:href="#DejaVuSans-65" x="177.490234"/>
     </g>
    </g>
   </g>
   <g id="matplotlib.axis_2">
    <g id="ytick_1">
     <g id="line2d_23">
      <defs>
       <path id="mffd8d697da" d="M 0 0 
L -3.5 0 
" style="stroke: #000000; stroke-width: 0.8"/>
      </defs>
      <g>
       <use xlink:href="#mffd8d697da" x="90" y="496.157487" style="stroke: #000000; stroke-width: 0.8"/>
      </g>
     </g>
     <g id="text_6">
      <!-- −2 -->
      <g transform="translate(68.257812 499.956706)scale(0.1 -0.1)">
       <defs>
        <path id="DejaVuSans-2212" d="M 678 2272 
L 4684 2272 
L 4684 1741 
L 678 1741 
L 678 2272 
z
" transform="scale(0.015625)"/>
       </defs>
       <use xlink:href="#DejaVuSans-2212"/>
       <use xlink:href="#DejaVuSans-32" x="83.789062"/>
      </g>
     </g>
    </g>
    <g id="ytick_2">
     <g id="line2d_24">
      <g>
       <use xlink:href="#mffd8d697da" x="90" y="408.820041" style="stroke: #000000; stroke-width: 0.8"/>
      </g>
     </g>
     <g id="text_7">
      <!-- −1 -->
      <g transform="translate(68.257812 412.61926)scale(0.1 -0.1)">
       <use xlink:href="#DejaVuSans-2212"/>
       <use xlink:href="#DejaVuSans-31" x="83.789062"/>
      </g>
     </g>
    </g>
    <g id="ytick_3">
     <g id="line2d_25">
      <g>
       <use xlink:href="#mffd8d697da" x="90" y="321.482595" style="stroke: #000000; stroke-width: 0.8"/>
      </g>
     </g>
     <g id="text_8">
      <!-- 0 -->
      <g transform="translate(76.6375 325.281814)scale(0.1 -0.1)">
       <use xlink:href="#DejaVuSans-30"/>
      </g>
     </g>
    </g>
    <g id="ytick_4">
     <g id="line2d_26">
      <g>
       <use xlink:href="#mffd8d697da" x="90" y="234.145149" style="stroke: #000000; stroke-width: 0.8"/>
      </g>
     </g>
     <g id="text_9">
      <!-- 1 -->
      <g transform="translate(76.6375 237.944368)scale(0.1 -0.1)">
       <use xlink:href="#DejaVuSans-31"/>
      </g>
     </g>
    </g>
    <g id="ytick_5">
     <g id="line2d_27">
      <g>
       <use xlink:href="#mffd8d697da" x="90" y="146.807703" style="stroke: #000000; stroke-width: 0.8"/>
      </g>
     </g>
     <g id="text_10">
      <!-- 2 -->
      <g transform="translate(76.6375 150.606922)scale(0.1 -0.1)">
       <use xlink:href="#DejaVuSans-32"/>
      </g>
     </g>
    </g>
   </g>
   <g id="line2d_28">
    <path d="M 90 399.102778 
L 116.571429 316.436717 
L 143.142857 314.074778 
L 169.714286 387.293308 
L 196.285714 446.34043 
L 222.857143 446.34043 
L 249.428571 458.1499 
L 276 321.160594 
L 302.571429 321.160594 
L 329.142857 325.884247 
L 355.714286 271.561003 
L 382.285714 311.713064 
L 408.857143 358.950717 
L 435.428571 375.483839 
L 462 382.56943 
L 488.571429 380.207717 
L 515.142857 285.732186 
L 541.714286 243.218186 
L 568.285714 191.256881 
L 594.857143 188.894942 
L 621.428571 179.447411 
L 648 167.637942 
" clip-path="url(#pb2f434a069)" style="fill: none; stroke: #1f77b4; stroke-width: 4; stroke-linecap: square"/>
   </g>
   <g id="line2d_29">
    <path d="M 90 404.042533 
L 116.571429 381.981946 
L 143.142857 281.483926 
L 169.714286 303.544513 
L 196.285714 359.921476 
L 222.857143 391.786625 
L 249.428571 362.372588 
L 276 337.86089 
L 302.571429 362.372588 
L 329.142857 291.288605 
L 355.714286 328.056211 
L 382.285714 320.702643 
L 408.857143 357.470248 
L 435.428571 431.005459 
L 462 394.237854 
L 488.571429 462.870608 
L 515.142857 357.470248 
L 541.714286 252.069889 
L 568.285714 207.948716 
L 594.857143 200.595265 
L 621.428571 139.315961 
L 648 144.218301 
" clip-path="url(#pb2f434a069)" style="fill: none; stroke: #ff7f0e; stroke-width: 4; stroke-linecap: square"/>
   </g>
   <g id="line2d_30">
    <path d="M 90 89.28 
L 116.571429 150.88704 
L 143.142857 246.994343 
L 169.714286 323.386942 
L 196.285714 266.708577 
L 222.857143 288.886679 
L 249.428571 384.993982 
L 276 328.315618 
L 302.571429 293.815356 
L 329.142857 286.422811 
L 355.714286 355.422396 
L 382.285714 412.10076 
L 408.857143 424.422451 
L 435.428571 414.565098 
L 462 372.672292 
L 488.571429 372.672292 
L 515.142857 471.243933 
L 541.714286 254.386887 
L 568.285714 340.636838 
L 594.857143 330.779486 
L 621.428571 333.243824 
L 648 330.779486 
" clip-path="url(#pb2f434a069)" style="fill: none; stroke: #2ca02c; stroke-width: 4; stroke-linecap: square"/>
   </g>
   <g id="line2d_31">
    <path d="M 90 277.972354 
L 116.571429 278.640696 
L 143.142857 299.362872 
L 169.714286 354.844576 
L 196.285714 323.427141 
L 222.857143 327.437959 
L 249.428571 346.154599 
L 276 313.400352 
L 302.571429 325.43255 
L 329.142857 320.084921 
L 355.714286 268.613907 
L 382.285714 402.304772 
L 408.857143 445.754278 
L 435.428571 420.35307 
L 462 447.091218 
L 488.571429 444.417467 
L 515.142857 411.66322 
L 541.714286 252.571018 
L 568.285714 306.715783 
L 594.857143 227.838279 
L 621.428571 153.639808 
L 648 124.896252 
" clip-path="url(#pb2f434a069)" style="fill: none; stroke: #d62728; stroke-width: 4; stroke-linecap: square"/>
   </g>
   <g id="line2d_32">
    <path d="M 90 326.198722 
L 116.571429 317.405852 
L 143.142857 312.129929 
L 169.714286 422.92197 
L 196.285714 415.887406 
L 222.857143 405.335895 
L 249.428571 345.543439 
L 276 310.371288 
L 302.571429 238.268679 
L 329.142857 292.785547 
L 355.714286 217.165657 
L 382.285714 104.615309 
L 408.857143 201.338222 
L 435.428571 278.716754 
L 462 398.30133 
L 488.571429 454.57684 
L 515.142857 435.232123 
L 541.714286 217.165657 
L 568.285714 310.371288 
L 594.857143 352.578003 
L 621.428571 361.370873 
L 648 354.336309 
" clip-path="url(#pb2f434a069)" style="fill: none; stroke: #9467bd; stroke-width: 4; stroke-linecap: square"/>
   </g>
   <g id="line2d_33">
    <path d="M 90 388.409696 
L 116.571429 286.768839 
L 143.142857 228.022344 
L 169.714286 292.443564 
L 196.285714 288.688942 
L 222.857143 327.176592 
L 249.428571 369.418865 
L 276 296.198544 
L 302.571429 238.936351 
L 329.142857 266.15942 
L 355.714286 196.693721 
L 382.285714 244.568821 
L 408.857143 404.151893 
L 435.428571 450.149146 
L 462 449.21058 
L 488.571429 468.923688 
L 515.142857 452.026636 
L 541.714286 176.042047 
L 568.285714 385.377351 
L 594.857143 326.237668 
L 621.428571 259.588384 
L 648 277.424002 
" clip-path="url(#pb2f434a069)" style="fill: none; stroke: #8c564b; stroke-width: 4; stroke-linecap: square"/>
   </g>
   <g id="line2d_34">
    <path d="M 90 314.39988 
L 116.571429 208.664756 
L 143.142857 191.969757 
L 169.714286 247.619753 
L 196.285714 286.574882 
L 222.857143 319.96488 
L 249.428571 342.224878 
L 276 308.834881 
L 302.571429 319.96488 
L 329.142857 375.614876 
L 355.714286 292.139882 
L 382.285714 364.484877 
L 408.857143 420.135005 
L 435.428571 425.700005 
L 462 453.525003 
L 488.571429 492.48 
L 515.142857 447.960003 
L 541.714286 342.224878 
L 568.285714 236.489753 
L 594.857143 236.489753 
L 621.428571 225.359754 
L 648 219.794755 
" clip-path="url(#pb2f434a069)" style="fill: none; stroke: #e377c2; stroke-width: 4; stroke-linecap: square"/>
   </g>
   <g id="line2d_35">
    <path d="M 90 212.325427 
L 116.571429 254.038306 
L 143.142857 257.613527 
L 169.714286 331.504302 
L 196.285714 360.107432 
L 222.857143 327.929081 
L 249.428571 304.093215 
L 276 320.778185 
L 302.571429 316.011376 
L 329.142857 319.586596 
L 355.714286 202.791354 
L 382.285714 146.777137 
L 408.857143 316.011376 
L 435.428571 425.655722 
L 462 394.669415 
L 488.571429 442.340692 
L 515.142857 424.464134 
L 541.714286 194.448869 
L 568.285714 265.956012 
L 594.857143 366.066285 
L 621.428571 441.149103 
L 648 448.299545 
" clip-path="url(#pb2f434a069)" style="fill: none; stroke: #7f7f7f; stroke-width: 4; stroke-linecap: square"/>
   </g>
   <g id="line2d_36">
    <path d="M 90 226.657551 
L 116.571429 156.008911 
L 143.142857 176.194292 
L 169.714286 295.287615 
L 196.285714 299.324768 
L 222.857143 308.40817 
L 249.428571 374.010177 
L 276 337.676568 
L 302.571429 331.621224 
L 329.142857 325.565494 
L 355.714286 210.509324 
L 382.285714 240.787202 
L 408.857143 325.565494 
L 435.428571 391.167885 
L 462 361.899102 
L 488.571429 400.251287 
L 515.142857 388.139828 
L 541.714286 235.740953 
L 568.285714 322.537821 
L 594.857143 428.510589 
L 621.428571 479.982945 
L 648 456.769892 
" clip-path="url(#pb2f434a069)" style="fill: none; stroke: #bcbd22; stroke-width: 4; stroke-linecap: square"/>
   </g>
   <g id="line2d_37">
    <path d="M 90 234.259252 
L 116.571429 233.067124 
L 143.142857 215.189289 
L 169.714286 329.60907 
L 196.285714 312.922909 
L 222.857143 360.59759 
L 249.428571 335.568348 
L 276 281.933934 
L 302.571429 289.08534 
L 329.142857 283.126062 
L 355.714286 225.916172 
L 382.285714 192.543394 
L 408.857143 321.265989 
L 435.428571 386.81896 
L 462 449.988129 
L 488.571429 479.784976 
L 515.142857 453.56406 
L 541.714286 205.65408 
L 568.285714 279.550131 
L 594.857143 346.295231 
L 621.428571 429.726492 
L 648 426.150561 
" clip-path="url(#pb2f434a069)" style="fill: none; stroke: #17becf; stroke-width: 4; stroke-linecap: square"/>
   </g>
   <g id="line2d_38">
    <path d="M 90 266.154838 
L 116.571429 208.952312 
L 143.142857 207.395742 
L 169.714286 298.84206 
L 196.285714 274.715823 
L 222.857143 285.611515 
L 249.428571 291.837645 
L 276 277.050678 
L 302.571429 275.104892 
L 329.142857 277.828814 
L 355.714286 173.541167 
L 382.285714 224.128495 
L 408.857143 309.348683 
L 435.428571 332.696783 
L 462 344.759828 
L 488.571429 410.912556 
L 515.142857 415.582117 
L 541.714286 405.075494 
L 568.285714 444.378062 
L 594.857143 461.110816 
L 621.428571 441.65414 
L 648 445.934632 
" clip-path="url(#pb2f434a069)" style="fill: none; stroke: #1f77b4; stroke-width: 4; stroke-linecap: square"/>
   </g>
   <g id="line2d_39">
    <path d="M 90 424.403574 
L 116.571429 410.526696 
L 143.142857 371.20851 
L 169.714286 401.275371 
L 196.285714 403.588258 
L 222.857143 405.900924 
L 249.428571 422.090908 
L 276 357.331412 
L 302.571429 294.885023 
L 329.142857 306.449235 
L 355.714286 257.879723 
L 382.285714 311.074787 
L 408.857143 357.331412 
L 435.428571 380.459835 
L 462 373.521396 
L 488.571429 345.767421 
L 515.142857 318.013446 
L 541.714286 158.427813 
L 568.285714 181.556236 
L 594.857143 174.617577 
L 621.428571 186.181788 
L 648 230.125748 
" clip-path="url(#pb2f434a069)" style="fill: none; stroke: #ff7f0e; stroke-width: 4; stroke-linecap: square"/>
   </g>
   <g id="line2d_40">
    <path d="M 90 399.033131 
L 116.571429 316.555324 
L 143.142857 314.198764 
L 169.714286 387.250555 
L 196.285714 446.163211 
L 222.857143 446.163211 
L 249.428571 457.945787 
L 276 321.268444 
L 302.571429 321.268444 
L 329.142857 325.98134 
L 355.714286 271.781805 
L 382.285714 311.842428 
L 408.857143 358.972508 
L 435.428571 375.467979 
L 462 382.537435 
L 488.571429 380.181099 
L 515.142857 285.920716 
L 541.714286 243.503532 
L 568.285714 191.660557 
L 594.857143 189.303997 
L 621.428571 179.877981 
L 648 165.738845 
" clip-path="url(#pb2f434a069)" style="fill: none; stroke: #2ca02c; stroke-width: 4; stroke-linecap: square"/>
   </g>
   <g id="line2d_41">
    <path d="M 90 404.042533 
L 116.571429 381.981946 
L 143.142857 281.483926 
L 169.714286 303.544513 
L 196.285714 359.921476 
L 222.857143 391.786625 
L 249.428571 362.372588 
L 276 337.86089 
L 302.571429 362.372588 
L 329.142857 291.288605 
L 355.714286 328.056211 
L 382.285714 320.702643 
L 408.857143 357.470248 
L 435.428571 431.005459 
L 462 394.237854 
L 488.571429 462.870608 
L 515.142857 357.470248 
L 541.714286 252.069889 
L 568.285714 207.948716 
L 594.857143 200.595265 
L 621.428571 139.315961 
L 648 144.218301 
" clip-path="url(#pb2f434a069)" style="fill: none; stroke: #d62728; stroke-width: 4; stroke-linecap: square"/>
   </g>
   <g id="line2d_42">
    <path d="M 90 89.28 
L 116.571429 150.88704 
L 143.142857 246.994343 
L 169.714286 323.386942 
L 196.285714 266.708577 
L 222.857143 288.886679 
L 249.428571 384.993982 
L 276 328.315618 
L 302.571429 293.815356 
L 329.142857 286.422811 
L 355.714286 355.422396 
L 382.285714 412.10076 
L 408.857143 424.422451 
L 435.428571 414.565098 
L 462 372.672292 
L 488.571429 372.672292 
L 515.142857 471.243933 
L 541.714286 254.386887 
L 568.285714 340.636838 
L 594.857143 330.779486 
L 621.428571 333.243824 
L 648 330.779486 
" clip-path="url(#pb2f434a069)" style="fill: none; stroke: #9467bd; stroke-width: 4; stroke-linecap: square"/>
   </g>
   <g id="line2d_43">
    <path d="M 90 278.03841 
L 116.571429 278.706204 
L 143.142857 299.411377 
L 169.714286 354.847556 
L 196.285714 323.4559 
L 222.857143 327.463427 
L 249.428571 346.164708 
L 276 313.437338 
L 302.571429 325.459663 
L 329.142857 320.116422 
L 355.714286 268.687642 
L 382.285714 402.268809 
L 408.857143 445.682662 
L 435.428571 420.302297 
L 462 447.018505 
L 488.571429 444.346948 
L 515.142857 411.619577 
L 541.714286 252.657917 
L 568.285714 306.758254 
L 594.857143 227.945473 
L 621.428571 153.807885 
L 648 124.42012 
" clip-path="url(#pb2f434a069)" style="fill: none; stroke: #8c564b; stroke-width: 4; stroke-linecap: square"/>
   </g>
   <g id="line2d_44">
    <path d="M 90 326.198722 
L 116.571429 317.405852 
L 143.142857 312.129929 
L 169.714286 422.92197 
L 196.285714 415.887406 
L 222.857143 405.335895 
L 249.428571 345.543439 
L 276 310.371288 
L 302.571429 238.268679 
L 329.142857 292.785547 
L 355.714286 217.165657 
L 382.285714 104.615309 
L 408.857143 201.338222 
L 435.428571 278.716754 
L 462 398.30133 
L 488.571429 454.57684 
L 515.142857 435.232123 
L 541.714286 217.165657 
L 568.285714 310.371288 
L 594.857143 352.578003 
L 621.428571 361.370873 
L 648 354.336309 
" clip-path="url(#pb2f434a069)" style="fill: none; stroke: #e377c2; stroke-width: 4; stroke-linecap: square"/>
   </g>
   <g id="line2d_45">
    <path d="M 90 388.384122 
L 116.571429 286.717272 
L 143.142857 227.955755 
L 169.714286 292.393449 
L 196.285714 288.637867 
L 222.857143 327.135359 
L 249.428571 369.388434 
L 276 296.149389 
L 302.571429 238.872553 
L 329.142857 266.102583 
L 355.714286 196.61912 
L 382.285714 244.506464 
L 408.857143 404.130344 
L 435.428571 450.139359 
L 462 449.200553 
L 488.571429 468.918702 
L 515.142857 452.017329 
L 541.714286 175.962165 
L 568.285714 385.351001 
L 594.857143 326.196195 
L 621.428571 259.529867 
L 648 278.30921 
" clip-path="url(#pb2f434a069)" style="fill: none; stroke: #7f7f7f; stroke-width: 4; stroke-linecap: square"/>
   </g>
   <g id="line2d_46">
    <path d="M 90 314.39988 
L 116.571429 208.664756 
L 143.142857 191.969757 
L 169.714286 247.619753 
L 196.285714 286.574882 
L 222.857143 319.96488 
L 249.428571 342.224878 
L 276 308.834881 
L 302.571429 319.96488 
L 329.142857 375.614876 
L 355.714286 292.139882 
L 382.285714 364.484877 
L 408.857143 420.135005 
L 435.428571 425.700005 
L 462 453.525003 
L 488.571429 492.48 
L 515.142857 447.960003 
L 541.714286 342.224878 
L 568.285714 236.489753 
L 594.857143 236.489753 
L 621.428571 225.359754 
L 648 219.794755 
" clip-path="url(#pb2f434a069)" style="fill: none; stroke: #bcbd22; stroke-width: 4; stroke-linecap: square"/>
   </g>
   <g id="line2d_47">
    <path d="M 90 212.526534 
L 116.571429 254.080072 
L 143.142857 257.641636 
L 169.714286 331.250154 
L 196.285714 359.744022 
L 222.857143 327.68859 
L 249.428571 303.943776 
L 276 320.56501 
L 302.571429 315.816409 
L 329.142857 319.377973 
L 355.714286 203.02888 
L 382.285714 147.228633 
L 408.857143 315.816409 
L 435.428571 425.041922 
L 462 394.17398 
L 488.571429 441.663157 
L 515.142857 423.854886 
L 541.714286 194.718262 
L 568.285714 265.952253 
L 594.857143 365.680112 
L 621.428571 440.47612 
L 648 452.348301 
" clip-path="url(#pb2f434a069)" style="fill: none; stroke: #17becf; stroke-width: 4; stroke-linecap: square"/>
   </g>
   <g id="line2d_48">
    <path d="M 90 226.837853 
L 116.571429 156.493716 
L 143.142857 176.592096 
L 169.714286 295.172114 
L 196.285714 299.191867 
L 222.857143 308.236119 
L 249.428571 373.555374 
L 276 337.378367 
L 302.571429 331.349121 
L 329.142857 325.319492 
L 355.714286 210.759226 
L 382.285714 240.906604 
L 408.857143 325.319492 
L 435.428571 390.639131 
L 462 361.496499 
L 488.571429 399.683382 
L 515.142857 387.624124 
L 541.714286 235.882105 
L 568.285714 322.30487 
L 594.857143 427.820884 
L 621.428571 479.071388 
L 648 460.983268 
" clip-path="url(#pb2f434a069)" style="fill: none; stroke: #1f77b4; stroke-width: 4; stroke-linecap: square"/>
   </g>
   <g id="line2d_49">
    <path d="M 90 234.303488 
L 116.571429 233.11418 
L 143.142857 215.278649 
L 169.714286 329.427683 
L 196.285714 312.781005 
L 222.857143 360.342876 
L 249.428571 335.37286 
L 276 281.865359 
L 302.571429 288.999843 
L 329.142857 283.054666 
L 355.714286 225.980149 
L 382.285714 192.686341 
L 408.857143 321.104344 
L 435.428571 386.502199 
L 462 449.521893 
L 488.571429 479.248233 
L 515.142857 453.089363 
L 541.714286 205.766003 
L 568.285714 279.487197 
L 594.857143 346.07436 
L 621.428571 429.3082 
L 648 429.3082 
" clip-path="url(#pb2f434a069)" style="fill: none; stroke: #ff7f0e; stroke-width: 4; stroke-linecap: square"/>
   </g>
   <g id="line2d_50">
    <path d="M 90 266.152161 
L 116.571429 209.001675 
L 143.142857 207.446521 
L 169.714286 298.809645 
L 196.285714 274.705357 
L 222.857143 285.591136 
L 249.428571 291.811602 
L 276 277.038088 
L 302.571429 275.094071 
L 329.142857 277.815516 
L 355.714286 173.622747 
L 382.285714 224.164052 
L 408.857143 309.306709 
L 435.428571 332.633568 
L 462 344.685637 
L 488.571429 410.778182 
L 515.142857 415.443495 
L 541.714286 404.94643 
L 568.285714 444.213243 
L 594.857143 460.930773 
L 621.428571 441.491798 
L 648 446.934687 
" clip-path="url(#pb2f434a069)" style="fill: none; stroke: #2ca02c; stroke-width: 4; stroke-linecap: square"/>
   </g>
   <g id="line2d_51">
    <path d="M 90 424.371437 
L 116.571429 410.513048 
L 143.142857 371.247248 
L 169.714286 401.27405 
L 196.285714 403.583854 
L 222.857143 405.893439 
L 249.428571 422.061852 
L 276 357.388639 
L 302.571429 295.025452 
L 329.142857 306.574256 
L 355.714286 258.069456 
L 382.285714 311.193645 
L 408.857143 357.388639 
L 435.428571 380.486247 
L 462 373.557053 
L 488.571429 345.840056 
L 515.142857 318.123059 
L 541.714286 158.750052 
L 568.285714 181.84766 
L 594.857143 174.918246 
L 621.428571 186.467049 
L 648 228.042655 
" clip-path="url(#pb2f434a069)" style="fill: none; stroke: #d62728; stroke-width: 4; stroke-linecap: square"/>
   </g>
   <g id="patch_3">
    <path d="M 90 512.64 
L 90 69.12 
" style="fill: none; stroke: #000000; stroke-width: 0.8; stroke-linejoin: miter; stroke-linecap: square"/>
   </g>
   <g id="patch_4">
    <path d="M 648 512.64 
L 648 69.12 
" style="fill: none; stroke: #000000; stroke-width: 0.8; stroke-linejoin: miter; stroke-linecap: square"/>
   </g>
   <g id="patch_5">
    <path d="M 90 512.64 
L 648 512.64 
" style="fill: none; stroke: #000000; stroke-width: 0.8; stroke-linejoin: miter; stroke-linecap: square"/>
   </g>
   <g id="patch_6">
    <path d="M 90 69.12 
L 648 69.12 
" style="fill: none; stroke: #000000; stroke-width: 0.8; stroke-linejoin: miter; stroke-linecap: square"/>
   </g>
   <g id="legend_1">
    <g id="patch_7">
     <path d="M 573.032812 429.395 
L 641 429.395 
Q 643 429.395 643 427.395 
L 643 76.12 
Q 643 74.12 641 74.12 
L 573.032812 74.12 
Q 571.032812 74.12 571.032812 76.12 
L 571.032812 427.395 
Q 571.032812 429.395 573.032812 429.395 
z
" style="fill: #ffffff; opacity: 0.8; stroke: #cccccc; stroke-linejoin: miter"/>
    </g>
    <g id="line2d_52">
     <path d="M 575.032812 82.218438 
L 585.032812 82.218438 
L 595.032812 82.218438 
" style="fill: none; stroke: #1f77b4; stroke-width: 4; stroke-linecap: square"/>
    </g>
    <g id="text_11">
     <!-- GOAU4 -->
     <g transform="translate(603.032812 85.718438)scale(0.1 -0.1)">
      <defs>
       <path id="DejaVuSans-47" d="M 3809 666 
L 3809 1919 
L 2778 1919 
L 2778 2438 
L 4434 2438 
L 4434 434 
Q 4069 175 3628 42 
Q 3188 -91 2688 -91 
Q 1594 -91 976 548 
Q 359 1188 359 2328 
Q 359 3472 976 4111 
Q 1594 4750 2688 4750 
Q 3144 4750 3555 4637 
Q 3966 4525 4313 4306 
L 4313 3634 
Q 3963 3931 3569 4081 
Q 3175 4231 2741 4231 
Q 1884 4231 1454 3753 
Q 1025 3275 1025 2328 
Q 1025 1384 1454 906 
Q 1884 428 2741 428 
Q 3075 428 3337 486 
Q 3600 544 3809 666 
z
" transform="scale(0.015625)"/>
       <path id="DejaVuSans-41" d="M 2188 4044 
L 1331 1722 
L 3047 1722 
L 2188 4044 
z
M 1831 4666 
L 2547 4666 
L 4325 0 
L 3669 0 
L 3244 1197 
L 1141 1197 
L 716 0 
L 50 0 
L 1831 4666 
z
" transform="scale(0.015625)"/>
       <path id="DejaVuSans-55" d="M 556 4666 
L 1191 4666 
L 1191 1831 
Q 1191 1081 1462 751 
Q 1734 422 2344 422 
Q 2950 422 3222 751 
Q 3494 1081 3494 1831 
L 3494 4666 
L 4128 4666 
L 4128 1753 
Q 4128 841 3676 375 
Q 3225 -91 2344 -91 
Q 1459 -91 1007 375 
Q 556 841 556 1753 
L 556 4666 
z
" transform="scale(0.015625)"/>
       <path id="DejaVuSans-34" d="M 2419 4116 
L 825 1625 
L 2419 1625 
L 2419 4116 
z
M 2253 4666 
L 3047 4666 
L 3047 1625 
L 3713 1625 
L 3713 1100 
L 3047 1100 
L 3047 0 
L 2419 0 
L 2419 1100 
L 313 1100 
L 313 1709 
L 2253 4666 
z
" transform="scale(0.015625)"/>
      </defs>
      <use xlink:href="#DejaVuSans-47"/>
      <use xlink:href="#DejaVuSans-4f" x="77.490234"/>
      <use xlink:href="#DejaVuSans-41" x="154.451172"/>
      <use xlink:href="#DejaVuSans-55" x="222.859375"/>
      <use xlink:href="#DejaVuSans-34" x="296.052734"/>
     </g>
    </g>
    <g id="line2d_53">
     <path d="M 575.032812 96.896563 
L 585.032812 96.896563 
L 595.032812 96.896563 
" style="fill: none; stroke: #ff7f0e; stroke-width: 4; stroke-linecap: square"/>
    </g>
    <g id="text_12">
     <!-- MGLU3 -->
     <g transform="translate(603.032812 100.396563)scale(0.1 -0.1)">
      <defs>
       <path id="DejaVuSans-4d" d="M 628 4666 
L 1569 4666 
L 2759 1491 
L 3956 4666 
L 4897 4666 
L 4897 0 
L 4281 0 
L 4281 4097 
L 3078 897 
L 2444 897 
L 1241 4097 
L 1241 0 
L 628 0 
L 628 4666 
z
" transform="scale(0.015625)"/>
       <path id="DejaVuSans-4c" d="M 628 4666 
L 1259 4666 
L 1259 531 
L 3531 531 
L 3531 0 
L 628 0 
L 628 4666 
z
" transform="scale(0.015625)"/>
       <path id="DejaVuSans-33" d="M 2597 2516 
Q 3050 2419 3304 2112 
Q 3559 1806 3559 1356 
Q 3559 666 3084 287 
Q 2609 -91 1734 -91 
Q 1441 -91 1130 -33 
Q 819 25 488 141 
L 488 750 
Q 750 597 1062 519 
Q 1375 441 1716 441 
Q 2309 441 2620 675 
Q 2931 909 2931 1356 
Q 2931 1769 2642 2001 
Q 2353 2234 1838 2234 
L 1294 2234 
L 1294 2753 
L 1863 2753 
Q 2328 2753 2575 2939 
Q 2822 3125 2822 3475 
Q 2822 3834 2567 4026 
Q 2313 4219 1838 4219 
Q 1578 4219 1281 4162 
Q 984 4106 628 3988 
L 628 4550 
Q 988 4650 1302 4700 
Q 1616 4750 1894 4750 
Q 2613 4750 3031 4423 
Q 3450 4097 3450 3541 
Q 3450 3153 3228 2886 
Q 3006 2619 2597 2516 
z
" transform="scale(0.015625)"/>
      </defs>
      <use xlink:href="#DejaVuSans-4d"/>
      <use xlink:href="#DejaVuSans-47" x="86.279297"/>
      <use xlink:href="#DejaVuSans-4c" x="163.769531"/>
      <use xlink:href="#DejaVuSans-55" x="214.482422"/>
      <use xlink:href="#DejaVuSans-33" x="287.675781"/>
     </g>
    </g>
    <g id="line2d_54">
     <path d="M 575.032812 111.574688 
L 585.032812 111.574688 
L 595.032812 111.574688 
" style="fill: none; stroke: #2ca02c; stroke-width: 4; stroke-linecap: square"/>
    </g>
    <g id="text_13">
     <!-- ASAI3 -->
     <g transform="translate(603.032812 115.074688)scale(0.1 -0.1)">
      <defs>
       <path id="DejaVuSans-53" d="M 3425 4513 
L 3425 3897 
Q 3066 4069 2747 4153 
Q 2428 4238 2131 4238 
Q 1616 4238 1336 4038 
Q 1056 3838 1056 3469 
Q 1056 3159 1242 3001 
Q 1428 2844 1947 2747 
L 2328 2669 
Q 3034 2534 3370 2195 
Q 3706 1856 3706 1288 
Q 3706 609 3251 259 
Q 2797 -91 1919 -91 
Q 1588 -91 1214 -16 
Q 841 59 441 206 
L 441 856 
Q 825 641 1194 531 
Q 1563 422 1919 422 
Q 2459 422 2753 634 
Q 3047 847 3047 1241 
Q 3047 1584 2836 1778 
Q 2625 1972 2144 2069 
L 1759 2144 
Q 1053 2284 737 2584 
Q 422 2884 422 3419 
Q 422 4038 858 4394 
Q 1294 4750 2059 4750 
Q 2388 4750 2728 4690 
Q 3069 4631 3425 4513 
z
" transform="scale(0.015625)"/>
       <path id="DejaVuSans-49" d="M 628 4666 
L 1259 4666 
L 1259 0 
L 628 0 
L 628 4666 
z
" transform="scale(0.015625)"/>
      </defs>
      <use xlink:href="#DejaVuSans-41"/>
      <use xlink:href="#DejaVuSans-53" x="68.408203"/>
      <use xlink:href="#DejaVuSans-41" x="133.759766"/>
      <use xlink:href="#DejaVuSans-49" x="202.167969"/>
      <use xlink:href="#DejaVuSans-33" x="231.660156"/>
     </g>
    </g>
    <g id="line2d_55">
     <path d="M 575.032812 126.252813 
L 585.032812 126.252813 
L 595.032812 126.252813 
" style="fill: none; stroke: #d62728; stroke-width: 4; stroke-linecap: square"/>
    </g>
    <g id="text_14">
     <!-- PETR4 -->
     <g transform="translate(603.032812 129.752813)scale(0.1 -0.1)">
      <defs>
       <path id="DejaVuSans-50" d="M 1259 4147 
L 1259 2394 
L 2053 2394 
Q 2494 2394 2734 2622 
Q 2975 2850 2975 3272 
Q 2975 3691 2734 3919 
Q 2494 4147 2053 4147 
L 1259 4147 
z
M 628 4666 
L 2053 4666 
Q 2838 4666 3239 4311 
Q 3641 3956 3641 3272 
Q 3641 2581 3239 2228 
Q 2838 1875 2053 1875 
L 1259 1875 
L 1259 0 
L 628 0 
L 628 4666 
z
" transform="scale(0.015625)"/>
       <path id="DejaVuSans-45" d="M 628 4666 
L 3578 4666 
L 3578 4134 
L 1259 4134 
L 1259 2753 
L 3481 2753 
L 3481 2222 
L 1259 2222 
L 1259 531 
L 3634 531 
L 3634 0 
L 628 0 
L 628 4666 
z
" transform="scale(0.015625)"/>
       <path id="DejaVuSans-54" d="M -19 4666 
L 3928 4666 
L 3928 4134 
L 2272 4134 
L 2272 0 
L 1638 0 
L 1638 4134 
L -19 4134 
L -19 4666 
z
" transform="scale(0.015625)"/>
       <path id="DejaVuSans-52" d="M 2841 2188 
Q 3044 2119 3236 1894 
Q 3428 1669 3622 1275 
L 4263 0 
L 3584 0 
L 2988 1197 
Q 2756 1666 2539 1819 
Q 2322 1972 1947 1972 
L 1259 1972 
L 1259 0 
L 628 0 
L 628 4666 
L 2053 4666 
Q 2853 4666 3247 4331 
Q 3641 3997 3641 3322 
Q 3641 2881 3436 2590 
Q 3231 2300 2841 2188 
z
M 1259 4147 
L 1259 2491 
L 2053 2491 
Q 2509 2491 2742 2702 
Q 2975 2913 2975 3322 
Q 2975 3731 2742 3939 
Q 2509 4147 2053 4147 
L 1259 4147 
z
" transform="scale(0.015625)"/>
      </defs>
      <use xlink:href="#DejaVuSans-50"/>
      <use xlink:href="#DejaVuSans-45" x="60.302734"/>
      <use xlink:href="#DejaVuSans-54" x="123.486328"/>
      <use xlink:href="#DejaVuSans-52" x="184.570312"/>
      <use xlink:href="#DejaVuSans-34" x="254.052734"/>
     </g>
    </g>
    <g id="line2d_56">
     <path d="M 575.032812 140.930938 
L 585.032812 140.930938 
L 595.032812 140.930938 
" style="fill: none; stroke: #9467bd; stroke-width: 4; stroke-linecap: square"/>
    </g>
    <g id="text_15">
     <!-- ENBR3 -->
     <g transform="translate(603.032812 144.430938)scale(0.1 -0.1)">
      <defs>
       <path id="DejaVuSans-4e" d="M 628 4666 
L 1478 4666 
L 3547 763 
L 3547 4666 
L 4159 4666 
L 4159 0 
L 3309 0 
L 1241 3903 
L 1241 0 
L 628 0 
L 628 4666 
z
" transform="scale(0.015625)"/>
       <path id="DejaVuSans-42" d="M 1259 2228 
L 1259 519 
L 2272 519 
Q 2781 519 3026 730 
Q 3272 941 3272 1375 
Q 3272 1813 3026 2020 
Q 2781 2228 2272 2228 
L 1259 2228 
z
M 1259 4147 
L 1259 2741 
L 2194 2741 
Q 2656 2741 2882 2914 
Q 3109 3088 3109 3444 
Q 3109 3797 2882 3972 
Q 2656 4147 2194 4147 
L 1259 4147 
z
M 628 4666 
L 2241 4666 
Q 2963 4666 3353 4366 
Q 3744 4066 3744 3513 
Q 3744 3084 3544 2831 
Q 3344 2578 2956 2516 
Q 3422 2416 3680 2098 
Q 3938 1781 3938 1306 
Q 3938 681 3513 340 
Q 3088 0 2303 0 
L 628 0 
L 628 4666 
z
" transform="scale(0.015625)"/>
      </defs>
      <use xlink:href="#DejaVuSans-45"/>
      <use xlink:href="#DejaVuSans-4e" x="63.183594"/>
      <use xlink:href="#DejaVuSans-42" x="137.988281"/>
      <use xlink:href="#DejaVuSans-52" x="206.591797"/>
      <use xlink:href="#DejaVuSans-33" x="276.074219"/>
     </g>
    </g>
    <g id="line2d_57">
     <path d="M 575.032812 155.609063 
L 585.032812 155.609063 
L 595.032812 155.609063 
" style="fill: none; stroke: #8c564b; stroke-width: 4; stroke-linecap: square"/>
    </g>
    <g id="text_16">
     <!-- BBAS3 -->
     <g transform="translate(603.032812 159.109063)scale(0.1 -0.1)">
      <use xlink:href="#DejaVuSans-42"/>
      <use xlink:href="#DejaVuSans-42" x="68.603516"/>
      <use xlink:href="#DejaVuSans-41" x="137.207031"/>
      <use xlink:href="#DejaVuSans-53" x="205.615234"/>
      <use xlink:href="#DejaVuSans-33" x="269.091797"/>
     </g>
    </g>
    <g id="line2d_58">
     <path d="M 575.032812 170.287188 
L 585.032812 170.287188 
L 595.032812 170.287188 
" style="fill: none; stroke: #e377c2; stroke-width: 4; stroke-linecap: square"/>
    </g>
    <g id="text_17">
     <!-- CMIN3 -->
     <g transform="translate(603.032812 173.787188)scale(0.1 -0.1)">
      <defs>
       <path id="DejaVuSans-43" d="M 4122 4306 
L 4122 3641 
Q 3803 3938 3442 4084 
Q 3081 4231 2675 4231 
Q 1875 4231 1450 3742 
Q 1025 3253 1025 2328 
Q 1025 1406 1450 917 
Q 1875 428 2675 428 
Q 3081 428 3442 575 
Q 3803 722 4122 1019 
L 4122 359 
Q 3791 134 3420 21 
Q 3050 -91 2638 -91 
Q 1578 -91 968 557 
Q 359 1206 359 2328 
Q 359 3453 968 4101 
Q 1578 4750 2638 4750 
Q 3056 4750 3426 4639 
Q 3797 4528 4122 4306 
z
" transform="scale(0.015625)"/>
      </defs>
      <use xlink:href="#DejaVuSans-43"/>
      <use xlink:href="#DejaVuSans-4d" x="69.824219"/>
      <use xlink:href="#DejaVuSans-49" x="156.103516"/>
      <use xlink:href="#DejaVuSans-4e" x="185.595703"/>
      <use xlink:href="#DejaVuSans-33" x="260.400391"/>
     </g>
    </g>
    <g id="line2d_59">
     <path d="M 575.032812 184.965313 
L 585.032812 184.965313 
L 595.032812 184.965313 
" style="fill: none; stroke: #7f7f7f; stroke-width: 4; stroke-linecap: square"/>
    </g>
    <g id="text_18">
     <!-- CPFE3 -->
     <g transform="translate(603.032812 188.465313)scale(0.1 -0.1)">
      <defs>
       <path id="DejaVuSans-46" d="M 628 4666 
L 3309 4666 
L 3309 4134 
L 1259 4134 
L 1259 2759 
L 3109 2759 
L 3109 2228 
L 1259 2228 
L 1259 0 
L 628 0 
L 628 4666 
z
" transform="scale(0.015625)"/>
      </defs>
      <use xlink:href="#DejaVuSans-43"/>
      <use xlink:href="#DejaVuSans-50" x="69.824219"/>
      <use xlink:href="#DejaVuSans-46" x="130.126953"/>
      <use xlink:href="#DejaVuSans-45" x="187.646484"/>
      <use xlink:href="#DejaVuSans-33" x="250.830078"/>
     </g>
    </g>
    <g id="line2d_60">
     <path d="M 575.032812 199.643438 
L 585.032812 199.643438 
L 595.032812 199.643438 
" style="fill: none; stroke: #bcbd22; stroke-width: 4; stroke-linecap: square"/>
    </g>
    <g id="text_19">
     <!-- VIVT3 -->
     <g transform="translate(603.032812 203.143438)scale(0.1 -0.1)">
      <defs>
       <path id="DejaVuSans-56" d="M 1831 0 
L 50 4666 
L 709 4666 
L 2188 738 
L 3669 4666 
L 4325 4666 
L 2547 0 
L 1831 0 
z
" transform="scale(0.015625)"/>
      </defs>
      <use xlink:href="#DejaVuSans-56"/>
      <use xlink:href="#DejaVuSans-49" x="68.408203"/>
      <use xlink:href="#DejaVuSans-56" x="97.900391"/>
      <use xlink:href="#DejaVuSans-54" x="166.308594"/>
      <use xlink:href="#DejaVuSans-33" x="227.392578"/>
     </g>
    </g>
    <g id="line2d_61">
     <path d="M 575.032812 214.321563 
L 585.032812 214.321563 
L 595.032812 214.321563 
" style="fill: none; stroke: #17becf; stroke-width: 4; stroke-linecap: square"/>
    </g>
    <g id="text_20">
     <!-- EGIE3 -->
     <g transform="translate(603.032812 217.821563)scale(0.1 -0.1)">
      <use xlink:href="#DejaVuSans-45"/>
      <use xlink:href="#DejaVuSans-47" x="63.183594"/>
      <use xlink:href="#DejaVuSans-49" x="140.673828"/>
      <use xlink:href="#DejaVuSans-45" x="170.166016"/>
      <use xlink:href="#DejaVuSans-33" x="233.349609"/>
     </g>
    </g>
    <g id="line2d_62">
     <path d="M 575.032812 228.999688 
L 585.032812 228.999688 
L 595.032812 228.999688 
" style="fill: none; stroke: #1f77b4; stroke-width: 4; stroke-linecap: square"/>
    </g>
    <g id="text_21">
     <!-- SLCE3 -->
     <g transform="translate(603.032812 232.499688)scale(0.1 -0.1)">
      <use xlink:href="#DejaVuSans-53"/>
      <use xlink:href="#DejaVuSans-4c" x="63.476562"/>
      <use xlink:href="#DejaVuSans-43" x="119.189453"/>
      <use xlink:href="#DejaVuSans-45" x="189.013672"/>
      <use xlink:href="#DejaVuSans-33" x="252.197266"/>
     </g>
    </g>
    <g id="line2d_63">
     <path d="M 575.032812 243.677813 
L 585.032812 243.677813 
L 595.032812 243.677813 
" style="fill: none; stroke: #ff7f0e; stroke-width: 4; stroke-linecap: square"/>
    </g>
    <g id="text_22">
     <!-- ITSA4 -->
     <g transform="translate(603.032812 247.177813)scale(0.1 -0.1)">
      <use xlink:href="#DejaVuSans-49"/>
      <use xlink:href="#DejaVuSans-54" x="29.492188"/>
      <use xlink:href="#DejaVuSans-53" x="90.576172"/>
      <use xlink:href="#DejaVuSans-41" x="155.927734"/>
      <use xlink:href="#DejaVuSans-34" x="224.335938"/>
     </g>
    </g>
    <g id="line2d_64">
     <path d="M 575.032812 258.355937 
L 585.032812 258.355937 
L 595.032812 258.355937 
" style="fill: none; stroke: #2ca02c; stroke-width: 4; stroke-linecap: square"/>
    </g>
    <g id="text_23">
     <!-- GOAU4 -->
     <g transform="translate(603.032812 261.855937)scale(0.1 -0.1)">
      <use xlink:href="#DejaVuSans-47"/>
      <use xlink:href="#DejaVuSans-4f" x="77.490234"/>
      <use xlink:href="#DejaVuSans-41" x="154.451172"/>
      <use xlink:href="#DejaVuSans-55" x="222.859375"/>
      <use xlink:href="#DejaVuSans-34" x="296.052734"/>
     </g>
    </g>
    <g id="line2d_65">
     <path d="M 575.032812 273.034063 
L 585.032812 273.034063 
L 595.032812 273.034063 
" style="fill: none; stroke: #d62728; stroke-width: 4; stroke-linecap: square"/>
    </g>
    <g id="text_24">
     <!-- MGLU3 -->
     <g transform="translate(603.032812 276.534063)scale(0.1 -0.1)">
      <use xlink:href="#DejaVuSans-4d"/>
      <use xlink:href="#DejaVuSans-47" x="86.279297"/>
      <use xlink:href="#DejaVuSans-4c" x="163.769531"/>
      <use xlink:href="#DejaVuSans-55" x="214.482422"/>
      <use xlink:href="#DejaVuSans-33" x="287.675781"/>
     </g>
    </g>
    <g id="line2d_66">
     <path d="M 575.032812 287.712188 
L 585.032812 287.712188 
L 595.032812 287.712188 
" style="fill: none; stroke: #9467bd; stroke-width: 4; stroke-linecap: square"/>
    </g>
    <g id="text_25">
     <!-- ASAI3 -->
     <g transform="translate(603.032812 291.212188)scale(0.1 -0.1)">
      <use xlink:href="#DejaVuSans-41"/>
      <use xlink:href="#DejaVuSans-53" x="68.408203"/>
      <use xlink:href="#DejaVuSans-41" x="133.759766"/>
      <use xlink:href="#DejaVuSans-49" x="202.167969"/>
      <use xlink:href="#DejaVuSans-33" x="231.660156"/>
     </g>
    </g>
    <g id="line2d_67">
     <path d="M 575.032812 302.390312 
L 585.032812 302.390312 
L 595.032812 302.390312 
" style="fill: none; stroke: #8c564b; stroke-width: 4; stroke-linecap: square"/>
    </g>
    <g id="text_26">
     <!-- PETR4 -->
     <g transform="translate(603.032812 305.890312)scale(0.1 -0.1)">
      <use xlink:href="#DejaVuSans-50"/>
      <use xlink:href="#DejaVuSans-45" x="60.302734"/>
      <use xlink:href="#DejaVuSans-54" x="123.486328"/>
      <use xlink:href="#DejaVuSans-52" x="184.570312"/>
      <use xlink:href="#DejaVuSans-34" x="254.052734"/>
     </g>
    </g>
    <g id="line2d_68">
     <path d="M 575.032812 317.068437 
L 585.032812 317.068437 
L 595.032812 317.068437 
" style="fill: none; stroke: #e377c2; stroke-width: 4; stroke-linecap: square"/>
    </g>
    <g id="text_27">
     <!-- ENBR3 -->
     <g transform="translate(603.032812 320.568437)scale(0.1 -0.1)">
      <use xlink:href="#DejaVuSans-45"/>
      <use xlink:href="#DejaVuSans-4e" x="63.183594"/>
      <use xlink:href="#DejaVuSans-42" x="137.988281"/>
      <use xlink:href="#DejaVuSans-52" x="206.591797"/>
      <use xlink:href="#DejaVuSans-33" x="276.074219"/>
     </g>
    </g>
    <g id="line2d_69">
     <path d="M 575.032812 331.746562 
L 585.032812 331.746562 
L 595.032812 331.746562 
" style="fill: none; stroke: #7f7f7f; stroke-width: 4; stroke-linecap: square"/>
    </g>
    <g id="text_28">
     <!-- BBAS3 -->
     <g transform="translate(603.032812 335.246562)scale(0.1 -0.1)">
      <use xlink:href="#DejaVuSans-42"/>
      <use xlink:href="#DejaVuSans-42" x="68.603516"/>
      <use xlink:href="#DejaVuSans-41" x="137.207031"/>
      <use xlink:href="#DejaVuSans-53" x="205.615234"/>
      <use xlink:href="#DejaVuSans-33" x="269.091797"/>
     </g>
    </g>
    <g id="line2d_70">
     <path d="M 575.032812 346.424688 
L 585.032812 346.424688 
L 595.032812 346.424688 
" style="fill: none; stroke: #bcbd22; stroke-width: 4; stroke-linecap: square"/>
    </g>
    <g id="text_29">
     <!-- CMIN3 -->
     <g transform="translate(603.032812 349.924688)scale(0.1 -0.1)">
      <use xlink:href="#DejaVuSans-43"/>
      <use xlink:href="#DejaVuSans-4d" x="69.824219"/>
      <use xlink:href="#DejaVuSans-49" x="156.103516"/>
      <use xlink:href="#DejaVuSans-4e" x="185.595703"/>
      <use xlink:href="#DejaVuSans-33" x="260.400391"/>
     </g>
    </g>
    <g id="line2d_71">
     <path d="M 575.032812 361.102813 
L 585.032812 361.102813 
L 595.032812 361.102813 
" style="fill: none; stroke: #17becf; stroke-width: 4; stroke-linecap: square"/>
    </g>
    <g id="text_30">
     <!-- CPFE3 -->
     <g transform="translate(603.032812 364.602813)scale(0.1 -0.1)">
      <use xlink:href="#DejaVuSans-43"/>
      <use xlink:href="#DejaVuSans-50" x="69.824219"/>
      <use xlink:href="#DejaVuSans-46" x="130.126953"/>
      <use xlink:href="#DejaVuSans-45" x="187.646484"/>
      <use xlink:href="#DejaVuSans-33" x="250.830078"/>
     </g>
    </g>
    <g id="line2d_72">
     <path d="M 575.032812 375.780938 
L 585.032812 375.780938 
L 595.032812 375.780938 
" style="fill: none; stroke: #1f77b4; stroke-width: 4; stroke-linecap: square"/>
    </g>
    <g id="text_31">
     <!-- VIVT3 -->
     <g transform="translate(603.032812 379.280938)scale(0.1 -0.1)">
      <use xlink:href="#DejaVuSans-56"/>
      <use xlink:href="#DejaVuSans-49" x="68.408203"/>
      <use xlink:href="#DejaVuSans-56" x="97.900391"/>
      <use xlink:href="#DejaVuSans-54" x="166.308594"/>
      <use xlink:href="#DejaVuSans-33" x="227.392578"/>
     </g>
    </g>
    <g id="line2d_73">
     <path d="M 575.032812 390.459063 
L 585.032812 390.459063 
L 595.032812 390.459063 
" style="fill: none; stroke: #ff7f0e; stroke-width: 4; stroke-linecap: square"/>
    </g>
    <g id="text_32">
     <!-- EGIE3 -->
     <g transform="translate(603.032812 393.959063)scale(0.1 -0.1)">
      <use xlink:href="#DejaVuSans-45"/>
      <use xlink:href="#DejaVuSans-47" x="63.183594"/>
      <use xlink:href="#DejaVuSans-49" x="140.673828"/>
      <use xlink:href="#DejaVuSans-45" x="170.166016"/>
      <use xlink:href="#DejaVuSans-33" x="233.349609"/>
     </g>
    </g>
    <g id="line2d_74">
     <path d="M 575.032812 405.137188 
L 585.032812 405.137188 
L 595.032812 405.137188 
" style="fill: none; stroke: #2ca02c; stroke-width: 4; stroke-linecap: square"/>
    </g>
    <g id="text_33">
     <!-- SLCE3 -->
     <g transform="translate(603.032812 408.637188)scale(0.1 -0.1)">
      <use xlink:href="#DejaVuSans-53"/>
      <use xlink:href="#DejaVuSans-4c" x="63.476562"/>
      <use xlink:href="#DejaVuSans-43" x="119.189453"/>
      <use xlink:href="#DejaVuSans-45" x="189.013672"/>
      <use xlink:href="#DejaVuSans-33" x="252.197266"/>
     </g>
    </g>
    <g id="line2d_75">
     <path d="M 575.032812 419.815313 
L 585.032812 419.815313 
L 595.032812 419.815313 
" style="fill: none; stroke: #d62728; stroke-width: 4; stroke-linecap: square"/>
    </g>
    <g id="text_34">
     <!-- ITSA4 -->
     <g transform="translate(603.032812 423.315313)scale(0.1 -0.1)">
      <use xlink:href="#DejaVuSans-49"/>
      <use xlink:href="#DejaVuSans-54" x="29.492188"/>
      <use xlink:href="#DejaVuSans-53" x="90.576172"/>
      <use xlink:href="#DejaVuSans-41" x="155.927734"/>
      <use xlink:href="#DejaVuSans-34" x="224.335938"/>
     </g>
    </g>
   </g>
  </g>
 </g>
 <defs>
  <clipPath id="pb2f434a069">
   <rect x="90" y="69.12" width="558" height="443.52"/>
  </clipPath>
 </defs>
</svg>
